<?xml version="1.0" encoding="UTF-8" standalone="no"?>
<svg
   xmlns:dc="http://purl.org/dc/elements/1.1/"
   xmlns:cc="http://creativecommons.org/ns#"
   xmlns:rdf="http://www.w3.org/1999/02/22-rdf-syntax-ns#"
   xmlns:svg="http://www.w3.org/2000/svg"
   xmlns="http://www.w3.org/2000/svg"
   xmlns:sodipodi="http://sodipodi.sourceforge.net/DTD/sodipodi-0.dtd"
   xmlns:inkscape="http://www.inkscape.org/namespaces/inkscape"
   id="svg2"
   viewBox="0 0 744.09 1052.4"
   version="1.1"
   inkscape:version="0.91 r13725"
   sodipodi:docname="1299579408.svg">
  <defs
     id="defs3343" />
  <sodipodi:namedview
     pagecolor="#ffffff"
     bordercolor="#666666"
     borderopacity="1"
     objecttolerance="10"
     gridtolerance="10"
     guidetolerance="10"
     inkscape:pageopacity="0"
     inkscape:pageshadow="2"
     inkscape:window-width="1920"
     inkscape:window-height="1018"
     id="namedview3341"
     showgrid="false"
     inkscape:zoom="0.80102621"
     inkscape:cx="372.04501"
     inkscape:cy="526.20001"
     inkscape:window-x="-8"
     inkscape:window-y="-8"
     inkscape:window-maximized="1"
     inkscape:current-layer="svg2" />
  <g
     id="layer1"
     transform="matrix(3.8247153,0,0,3.935091,-452.10886,-327.95121)">
    <path
       id="path3380"
       d="m 206.46,125.92 c 7.5414,0 14.37,1.4657 19.276,3.8125 2.4532,1.1734 4.4247,2.5516 5.7608,4.0625 1.3361,1.5109 2.0187,3.1161 2.0187,4.75 0,1.6339 -0.68265,3.2391 -2.0187,4.75 -1.3361,1.5109 -3.3075,2.8891 -5.7608,4.0625 -4.9065,2.3468 -11.735,3.8125 -19.276,3.8125 -7.5414,0 -14.37,-1.4657 -19.276,-3.8125 -2.4532,-1.1734 -4.4247,-2.5516 -5.7608,-4.0625 -1.3361,-1.5109 -2.0187,-3.1161 -2.0187,-4.75 0,-1.6339 0.68265,-3.2391 2.0187,-4.75 1.3361,-1.5109 3.3075,-2.8891 5.7608,-4.0625 4.9065,-2.3468 11.735,-3.8125 19.276,-3.8125 z m 0,-1 c -7.6216,0 -14.532,1.469 -19.562,3.875 -2.5151,1.203 -4.5575,2.65 -6,4.2812 -1.4425,1.6313 -2.2812,3.4763 -2.2812,5.4688 l 0,99.5 c 0,1.9924 0.83874,3.8687 2.2812,5.5 1.44246,1.6313 3.4849,3.047 6,4.25 5.0302,2.406 11.941,3.875 19.562,3.875 7.6216,0 14.532,-1.469 19.562,-3.875 2.5151,-1.203 4.5575,-2.6187 6,-4.25 1.4425,-1.6313 2.2812,-3.5076 2.2812,-5.5 l 0,-99.5 c 0,-1.9924 -0.83874,-3.8375 -2.2812,-5.4688 -1.44246,-1.6313 -3.4849,-3.0782 -6,-4.2812 -5.0302,-2.406 -11.941,-3.875 -19.562,-3.875 z m -6.4062,60.031 8.0625,4.5312 4.9062,0.5625 0,2.0938 -4.9688,-0.59375 -8,2.5938 0,-2.25 5.6562,-1.625 -5.6562,-3 0,-2.3125 z m 3,9.6562 c 0.34926,-0.0285 0.69259,-0.0127 1.0625,0.0312 0.69361,0.0897 1.3386,0.29877 1.9375,0.59375 0.59887,0.29499 1.1114,0.67978 1.5,1.2188 0.084,0.13072 0.14875,0.27748 0.21875,0.40625 0.0701,0.12878 0.1405,0.26781 0.1875,0.40625 l 5.0625,-2.4062 0,2.375 -4.6875,2.1562 0,1.5 4.6875,0.5625 0,2.0938 -10.438,-1.25 c -0.7113,-0.0955 -1.3079,-0.35291 -1.7812,-0.8125 -0.47334,-0.45959 -0.70975,-1.0091 -0.71875,-1.3125 l -0.0312,-1.7188 c 0.005,-0.45731 0.0229,-0.88035 0.0625,-1.3125 0.0397,-0.43215 0.20143,-0.87814 0.4375,-1.2812 0.34238,-0.51638 0.81445,-0.86368 1.4688,-1.0625 0.32717,-0.0994 0.68199,-0.15902 1.0312,-0.1875 z m 0.65625,2.1562 c -0.46812,0.005 -0.81057,0.1167 -1.0312,0.34375 -0.29422,0.30273 -0.41705,0.82989 -0.40625,1.5625 l 0,1.0312 c 0.006,0.13556 0.0685,0.23919 0.1875,0.34375 0.11901,0.10458 0.24336,0.19165 0.40625,0.21875 l 3.25,0.375 0,-1.625 c 0.0104,-0.51606 -0.12317,-0.97344 -0.40625,-1.4062 -0.28305,-0.43279 -0.76744,-0.70695 -1.4688,-0.8125 -0.18216,-0.0221 -0.37521,-0.033 -0.53125,-0.0312 z m -3.6562,6.875 2.2812,0.25 0,4.9375 c 0.004,0.13621 0.0481,0.26593 0.15625,0.375 0.10822,0.10905 0.2449,0.1597 0.40625,0.1875 l 2.2188,0.28125 0,-4.0312 2.1562,0.25 0,4.0312 3.4688,0.40625 0,-5.4375 2.2812,0.28125 0,7.5 -10.469,-1.2188 c -0.70244,-0.0946 -1.2786,-0.36357 -1.75,-0.8125 -0.47138,-0.44893 -0.7315,-0.9957 -0.75,-1.5938 l 0,-5.4062 z m 0,8.4062 2.2812,0.28125 0,3 10.688,1.25 0,2.0938 -10.688,-1.25 0,4.75 10.688,1.25 0,2.0938 -10.688,-1.25 0,2.9375 -2.2812,-0.25 0,-14.906 z m 12.969,15.312 0,2.125 -3.0312,0.59375 0,4.2188 3.0312,1.3125 0,2.1875 -11.969,-5.1562 c -0.35506,-0.15394 -0.60992,-0.34906 -0.8125,-0.625 -0.20256,-0.27594 -0.34075,-0.58964 -0.34375,-0.90625 0.005,-0.33339 0.13772,-0.621 0.34375,-0.875 0.20604,-0.25399 0.46553,-0.4223 0.8125,-0.5 l 11.969,-2.375 z m -5.2188,3.125 -4.875,0.875 4.875,2.0312 0,-2.9062 z m -5.0938,6.8438 c 0.2681,-0.0278 0.55472,-0.002 0.84375,0.0312 0.57383,0.0571 1.117,0.22019 1.5938,0.5 0.47677,0.27983 0.78886,0.6894 0.9375,1.25 0.18717,-0.57285 0.53798,-0.99303 1.0625,-1.2812 0.52453,-0.28817 1.1971,-0.3981 2.0312,-0.3125 0.48949,0.0607 0.94792,0.19041 1.375,0.375 0.4271,0.18463 0.81817,0.42598 1.1875,0.75 0.56188,0.51704 0.91423,1.0814 1.0625,1.6875 0.1483,0.60611 0.23925,1.2183 0.21875,1.8438 l 0,3.9376 -10.438,-1.2188 c -0.7113,-0.10102 -1.3079,-0.36485 -1.7812,-0.8125 -0.47334,-0.44764 -0.70975,-0.96754 -0.71875,-1.375 -0.009,-0.40746 -0.0312,-0.60954 -0.0312,-0.78125 3e-5,-0.17169 3e-5,-0.38331 0,-0.59375 -0.0154,-0.51993 0.026,-1.0094 0.0937,-1.5312 0.0678,-0.52186 0.25794,-1.0183 0.59375,-1.4375 0.32851,-0.38342 0.73544,-0.66171 1.2188,-0.84375 0.24167,-0.091 0.4819,-0.15966 0.75,-0.1875 z m 0.59375,2.1562 c -0.36561,0.021 -0.60355,0.14457 -0.75,0.375 -0.1953,0.30726 -0.29625,0.75793 -0.28125,1.375 l 0,1.0625 c 0.004,0.14329 0.0681,0.27045 0.1875,0.375 0.11939,0.10465 0.28006,0.1682 0.46875,0.1875 l 2.25,0.25 0,-1.5 c 0.03,-0.45119 -0.0373,-0.88067 -0.1875,-1.3125 -0.1502,-0.43182 -0.59034,-0.70211 -1.2812,-0.8125 -0.14643,-0.0161 -0.28438,-0.007 -0.40625,0 z m 5.125,0.15625 c -0.45765,0.0447 -0.78124,0.2224 -0.9375,0.53125 -0.20839,0.41183 -0.275,0.91003 -0.25,1.5 l 0,1.6875 c 1.1831,0.13943 2.3482,0.26683 3.5312,0.40625 l 0,-1.875 c 0.027,-0.57479 -0.054,-1.0663 -0.28125,-1.4688 -0.22721,-0.40245 -0.7576,-0.66344 -1.5625,-0.78125 -0.18553,-0.0152 -0.34745,-0.0149 -0.5,0 z m 23.068,-66.544 c -1.3361,1.5109 -3.3075,2.8891 -5.7608,4.0625 -4.9065,2.3468 -11.735,3.8125 -19.276,3.8125 -7.5414,0 -14.37,-1.4657 -19.276,-3.8125 -2.4532,-1.1734 -4.4247,-2.5516 -5.7608,-4.0625 -1.3361,-1.5109 -2.0187,-3.1161 -2.0187,-4.75 l 0,-26.511 c 0.37813,0.76857 0.89111,1.5215 1.5017,2.212 1.4425,1.6313 3.4918,3.047 6.007,4.25 5.0302,2.406 11.926,3.875 19.547,3.875 7.6216,0 14.517,-1.469 19.547,-3.875 2.5151,-1.203 4.5644,-2.6187 6.007,-4.25 0.61835,-0.69926 1.122,-1.4328 1.5017,-2.212 l 0,26.511 c 0,1.6339 -0.68265,3.2391 -2.0187,4.75 z m -35.993,-41.737 c -1.2273,0.31322 -2.3637,0.68242 -3.3974,1.0938 -1.852,0.737 -3.3562,1.6447 -4.4314,2.6562 -1.0752,1.0115 -1.7479,2.1699 -1.7479,3.4375 0,1.2676 0.67278,2.4572 1.7479,3.4688 1.0752,1.0115 2.5793,1.888 4.4314,2.625 3.7041,1.474 8.76,2.3438 14.353,2.3438 5.5927,0 10.649,-0.86974 14.353,-2.3438 1.852,-0.737 3.3808,-1.6135 4.456,-2.625 1.0752,-1.0115 1.7233,-2.2012 1.7233,-3.4688 0,-1.2676 -0.64816,-2.426 -1.7233,-3.4375 -1.0752,-1.0115 -2.6039,-1.9192 -4.456,-2.6562 -1.0352,-0.41194 -2.168,-0.78022 -3.3974,-1.0938 -0.0379,0.32538 -0.13865,0.60885 -0.2708,0.875 1.2222,0.30885 2.3584,0.6901 3.3728,1.0938 1.7842,0.71001 3.2267,1.5357 4.1852,2.4375 0.95846,0.90175 1.4279,1.8408 1.4279,2.7812 0,0.94051 -0.46942,1.8795 -1.4279,2.7812 -0.95846,0.90175 -2.401,1.7275 -4.1852,2.4375 -3.5684,1.42 -8.5525,2.3125 -14.057,2.3125 -5.5048,0 -10.489,-0.89247 -14.057,-2.3125 -1.7842,-0.71001 -3.2021,-1.5358 -4.1606,-2.4375 -0.95846,-0.90175 -1.4279,-1.8407 -1.4279,-2.7812 0,-0.9405 0.46942,-1.8795 1.4279,-2.7812 0.95847,-0.90176 2.3763,-1.7275 4.1606,-2.4375 1.0126,-0.40295 2.153,-0.78526 3.3728,-1.0938 -0.13215,-0.26615 -0.23294,-0.54962 -0.2708,-0.875 z m 10.955,-4.25 c -2.384,0 -4.5488,0.30105 -6.1547,0.8125 -0.80296,0.25573 -1.4518,0.56623 -1.9449,0.9375 -0.49309,0.37128 -0.83704,0.82566 -0.83704,1.3438 l 0,8.3438 c 0,0.51809 0.34395,0.97248 0.83704,1.3438 0.49308,0.37128 1.1419,0.68177 1.9449,0.9375 1.6059,0.51145 3.7706,0.8125 6.1547,0.8125 2.384,0 4.5488,-0.30105 6.1547,-0.8125 0.80296,-0.25573 1.4764,-0.56622 1.9695,-0.9375 0.49308,-0.37127 0.81242,-0.82566 0.81242,-1.3438 l 0,-8.3438 c 0,-0.51809 -0.31934,-0.97247 -0.81242,-1.3438 -0.49308,-0.37127 -1.1665,-0.68177 -1.9695,-0.9375 -1.6059,-0.51145 -3.7706,-0.8125 -6.1547,-0.8125 z m -1.6602,47.969 0,-7.8516 -7.793,0 0,-3.2812 7.793,0 0,-7.793 3.3203,0 0,7.793 7.793,0 0,3.2812 -7.793,0 0,7.8516 z"
       inkscape:connector-curvature="0" />
  </g>
  <metadata
     id="metadata3339">
    <rdf:RDF>
      <cc:Work>
        <dc:format>image/svg+xml</dc:format>
        <dc:type
           rdf:resource="http://purl.org/dc/dcmitype/StillImage" />
        <cc:license
           rdf:resource="http://creativecommons.org/licenses/publicdomain/" />
        <dc:publisher>
          <cc:Agent
             rdf:about="http://openclipart.org/">
            <dc:title>Openclipart</dc:title>
          </cc:Agent>
        </dc:publisher>
        <dc:title>Battery</dc:title>
        <dc:date>2011-03-08T10:16:48</dc:date>
        <dc:description>battery, clip art, clipart, </dc:description>
        <dc:source>http://openclipart.org/detail/126181/battery-by-langhart</dc:source>
        <dc:creator>
          <cc:Agent>
            <dc:title>langhart</dc:title>
          </cc:Agent>
        </dc:creator>
        <dc:subject>
          <rdf:Bag>
            <rdf:li>battery</rdf:li>
            <rdf:li>clip art</rdf:li>
            <rdf:li>clipart</rdf:li>
          </rdf:Bag>
        </dc:subject>
      </cc:Work>
      <cc:License
         rdf:about="http://creativecommons.org/licenses/publicdomain/">
        <cc:permits
           rdf:resource="http://creativecommons.org/ns#Reproduction" />
        <cc:permits
           rdf:resource="http://creativecommons.org/ns#Distribution" />
        <cc:permits
           rdf:resource="http://creativecommons.org/ns#DerivativeWorks" />
      </cc:License>
    </rdf:RDF>
  </metadata>
</svg>
