<?xml version="1.0"?>
<svg xmlns:rdf="http://www.w3.org/1999/02/22-rdf-syntax-ns#" xmlns="http://www.w3.org/2000/svg" xmlns:cc="http://creativecommons.org/ns#" xmlns:dc="http://purl.org/dc/elements/1.1/" xmlns:svg="http://www.w3.org/2000/svg" id="svg3668" viewBox="0 0 557.55 281.11" version="1.1">
  <g id="layer1" transform="translate(-81.277 -99.572)">
    <path id="path3698" stroke="#000" stroke-width="7" fill="none" d="m418.15 140.1c-4.14-14.71-11.895-29.583-27.263-35.413-10.419-3.9527-22.357-0.0869-30.589 5.6814-11.467 8.0356-14.361 25.635-9.4599 38.697 5.3403 14.232 23.586 22.391 21.842 39.578-1.5735 15.509-3.9048 31.409-2.6788 46.89 82.893 42.207 169.67 76.009 254.43 114.16 8.2049 3.6928 14.091 14.951 9.0037 22.056-7.051 9.8477-22.011 3.5208-32.686 2.5344-167.4-15.47-334.8-33-502.11-50.19-7.7587-0.79731-16.24-7.0342-13.234-16.128 3.5975-10.88 17.431-11.338 26.821-13.573 84.724-20.165 170.01-38.241 254.76-58.316 1.0052-0.29948 2.0105-0.59895 3.0157-0.89842"/>
  </g>
  <metadata>
    <rdf:RDF>
      <cc:Work>
        <dc:format>image/svg+xml</dc:format>
        <dc:type rdf:resource="http://purl.org/dc/dcmitype/StillImage"/>
        <cc:license rdf:resource="http://creativecommons.org/licenses/publicdomain/"/>
        <dc:publisher>
          <cc:Agent rdf:about="http://openclipart.org/">
            <dc:title>Openclipart</dc:title>
          </cc:Agent>
        </dc:publisher>
        <dc:title>Simple coat hanger</dc:title>
        <dc:date>2010-04-13T23:32:04</dc:date>
        <dc:description>A simple coat hanger.</dc:description>
        <dc:source>http://openclipart.org/detail/46789/simple-coat-hanger-by-laobc</dc:source>
        <dc:creator>
          <cc:Agent>
            <dc:title>laobc</dc:title>
          </cc:Agent>
        </dc:creator>
        <dc:subject>
          <rdf:Bag>
            <rdf:li>clip art</rdf:li>
            <rdf:li>clipart</rdf:li>
            <rdf:li>clothing</rdf:li>
            <rdf:li>coat</rdf:li>
            <rdf:li>household</rdf:li>
          </rdf:Bag>
        </dc:subject>
      </cc:Work>
      <cc:License rdf:about="http://creativecommons.org/licenses/publicdomain/">
        <cc:permits rdf:resource="http://creativecommons.org/ns#Reproduction"/>
        <cc:permits rdf:resource="http://creativecommons.org/ns#Distribution"/>
        <cc:permits rdf:resource="http://creativecommons.org/ns#DerivativeWorks"/>
      </cc:License>
    </rdf:RDF>
  </metadata>
</svg>
