<?xml version="1.0"?>
<svg xmlns:rdf="http://www.w3.org/1999/02/22-rdf-syntax-ns#" xmlns="http://www.w3.org/2000/svg" xmlns:cc="http://web.resource.org/cc/" xmlns:xlink="http://www.w3.org/1999/xlink" xmlns:dc="http://purl.org/dc/elements/1.1/" xmlns:svg="http://www.w3.org/2000/svg" enable-background="new 0 0 126.015 308.5" xml:space="preserve" version="1.1" y="0px" x="0px" viewBox="0 0 126.015 308.5">
<g id="power_xA0_Image" clip-rule="evenodd" fill-rule="evenodd">
	<path d="m105.14 155c3.974 2.215-3.667 8.231 0 13.628-5.864-1.38-1.98-11.15 0-13.63z"/>
	<path d="m118.77 180.31c1.368-6.099 5.035-9.889 3.895-18.495-0.23-2.692-5.493-0.35-4.867-3.895 11.76-3.69 8.6 20.55 0.98 22.39z"/>
	<path d="m53.543 271.82c0.661 5.67 0.667 7.81-0.974 12.653-13.059 6.05-9.559-18.61 0.974-12.65zm-5.84 10.71c4.155 1.146 3.906-7.696 0.972-7.789-1.505 1.42-0.858 4.99-0.972 7.79z"/>
	<path d="m79.826 295.19c-1.63-1.615-0.773-5.714-0.972-8.762 2.366-0.413 3.382-3.164 4.867-2.92 6.343 1.05 6.706 13.12-3.895 11.68zm4.867-2.92c-0.495-2.425 0.035-5.874-2.916-5.842-0.041 2.95-0.569 6.4 2.916 5.84z"/>
	<path d="m41.86 156.95c3.393 1.953-0.082-0.431 1.947-0.976 4.164 0.705 4.762 4.975 6.814 7.79 3.471-3.345 0.413-13.218 4.868-15.576-1.569-15.916-4.167-34.688 0.974-51.597 3.138-10.328 6.171-20.996 8.761-34.071 1.124-5.682 4.279-10.659 4.867-15.576 1.872-15.724-3.336-29.716-2.922-46.73 9.093-1.068 13.096 2.294 18.498 0-0.865 20.087 4.037 38.69 0 56.464-0.801 3.516-3.991 8.666-5.843 14.604-6.176 19.834-11.468 45.368-8.761 71.064 1.06 10.034 6.409 17.881 5.842 30.18 5.554-5.208 0.317-16.467 0.975-21.418 7.37 6.575 2.442 20.76 3.896 29.204 6.389-0.573 5.711-12.49 2.916-16.548 1.618-4.553 5.076-7.257 11.685-6.814 4.607 3.56 3.198 14.505 0 18.495 9.644 5.941 17.068-6.159 15.575-14.604-0.876-4.942-5.219-6.115-4.867-8.761 11.717 0.148 6.128 19.272 2.92 24.337 1.543 2.654 7.079 2.687 9.733 5.842 3.167 3.761 6.206 12.004 0.976 14.604-0.198-5.318-0.812-10.223-3.895-12.656-8.817-0.003-0.391 16.976-7.787 20.442-4.168-2.346 4.396-11.582 0-17.522-3.207 0.687-6.223 1.565-9.736 1.947v10.708c-3.696-0.844-0.835-8.249-2.919-10.708-1.421 0.85-3.77 0.773-2.923 3.895-3.027-3.327-5.123-1.843-11.678-1.947 1.933 9.157 11.532 11.288 17.52 16.551 3.604 3.164 6.093 8.499 9.736 12.653 5.624 6.415 12.418 9.317 16.549 17.522 2.729 22.524-7.606 31.981-26.285 33.099-1.799 12.558 5.487 24.725-0.972 33.1-8.666 0.666-15.442 6.479-24.338 3.895-5.676-6.657-1.772-22.891-2.922-34.071-1.38 0.082-2.754 0.16-2.92-0.975-5.008 3.001-0.661 13.078-2.92 20.442-6.301 4.488-22.877 9.047-29.205 1.947v-22.39c-14.176-5.944-28.343-11.894-26.285-34.071 6.53-8.966 10.336-19.174 17.523-27.26 7.721-8.686 19.588-12.476 27.258-21.415-10.399-3.251-22.575 0.131-26.285 6.814 3.927 3.859 6.319-2.069 9.735-1.947 0.108 6.988-10.607 7.056-13.63 2.919-0.154-3.195 4.354-4.29 1.947-6.813-2.774-3.743-7.299 2.218-8.761 0 6.618-3.767 9.062-11.705 18.497-12.656-3.777-2.87-10.852 0.809-15.576 2.922-5.353 2.39-10.779 5.473-13.63 8.762 1.474 2.943 4.273-0.809 6.815 0-0.121 6.174-8.731 3.703-10.708 0.973 4.957-10.945 19.189-12.613 31.151-16.551-7.15-9.99-28.321 0.291-34.073 0.975 2.777-9.416 20.626-8.325 31.153-6.814 3.176-4.101-4.248-17.517 2.92-19.47 0.448 4.745-1.019 11.402 0.974 14.604 4.809-7.1-2.272-18.388 7.788-22.39 2.904 3.921-4.809 5.542-3.893 10.706 0.179 4.596 5.242-1.741 4.867 2.922-0.863 0.46-1.738 0.88-1.945 1.97zm40.889-134.34c-0.367-6.774 1.321-15.599-2.923-18.499 0 4.995-3.463 16.694 2.923 18.499zm-3.895 4.867c1.315 0.306 1.857 1.386 3.895 0.972-0.532-1.415 1.136-5.03-0.972-4.867-0.973 1.301-2.632 1.912-2.923 3.895zm-1.947 23.362c0.908 1.039 3.592 0.303 2.919 2.922-2.322 6.11-3.895 12.976-7.786 17.523 3.636 1.039 2.774-2.419 5.842-1.947 3.231-12.642 9.105-28.223 2.92-39.913-2.486 5.845 0.369 15.247-3.895 21.415zm-6.815 26.284c3.057 0.463 3.977-1.213 4.867-2.919-2.486 0.108-3.406 1.784-4.867 2.919zm-0.971 12.656c3.032 0.687 4.563-5.064 2.919-5.842-0.39 2.533-2.906 2.938-2.919 5.842zm-4.87 7.79c3.422 3.842-1.547 5.365 1.946 9.734-6.42 2.317 0.268 3.426 0 4.867-0.401 2.186-4.638 1.816-4.867 5.842 4.392-0.669 2.233 1.633 1.947 3.895 6.867-0.283 4.086-9.189 4.867-14.604 0.783-5.443 2.957-10.389 2.92-14.604-4.418-0.522-2.596 5.192-6.813 4.872zm-0.973 29.202c2.005 0.853 4.369-2.524 1.947-2.919-0.232 1.39-1.603 1.64-1.947 2.92zm-0.973 6.82c3.986 0.087-1.563 6.745 3.893 6.814-1.182 1.458-4.589 4.063-0.973 4.867 3.261-2.823 3.33-12.566 0-16.548-0.303 2.29-3.38 1.81-2.92 4.87zm4.865 11.68c-4.911 3.92 3.394 4.56 0 0zm-1.945 11.68c3.057 0.46 3.977-1.217 4.867-2.922-1.84-0.108-0.675-3.216-2.922-2.919-0.862 1.73-2.715 2.47-1.945 5.84zm-8.761 8.76c1.77-2.786 2.013-12.362-1.947-12.653-0.628 2.85-3.3 12.8 1.947 12.65zm9.734-3.89c4.722 0.87 1.549 3.577 0.973 6.813 1.443 0.507 2.456 1.441 3.895 1.947 2.834-3.89-1.282-16.93-4.868-8.76zm21.418 0c0.372 5.466 1.499 10.182 0.972 16.548 6.268 0.023 6.125-5.705 3.895-9.734 1.84-0.218 2.148 1.098 3.896 0.973 0.651-4.687 0.713-7.486-1.948-10.709-3.678-0.43-4.571 1.92-6.815 2.92zm-49.649 0c5.286 2.5 4.874 10.7 11.681 11.681 3.694-7.201-8.176-6.558-7.788-13.628-2.217-0.27-3.658 0.23-3.893 1.95zm4.867 8.76c-2.289-0.308-0.578-4.613-3.893-3.895-0.048 2.09 2.266 6.7 3.893 3.9zm16.549 5.84c0.302-3.546-0.154-6.334-0.974-8.762h-3.893c-0.078 4.62-0.202 9.28 4.867 8.76zm7.787-0.97c2.221 0.271 3.661-0.235 3.895-1.947-1.724 0.22-4.873-0.98-3.895 1.95zm9.737 3.89c-1.065-2.482 3.327-5.009-0.976-4.869 0.536 1.42-1.135 5.03 0.976 4.87zm-12.656-2.92c-0.782 5.89 4.461 0.65 0 0zm2.919 5.84c4.581 1.104-0.146 5.801 4.869 6.814 3.49-3.19 1.406-9.868-0.975-12.656 0.105 3.36-3.353 3.14-3.894 5.85zm-26.283-3.89c0.757 4.112 4.545 5.192 8.762 5.842-1.235-3.63-4.63-5.11-8.762-5.84zm14.603 6.81c-0.55-4.966-3.813-7.219-8.761-7.786 1.36 4.16 5.926 5.11 8.761 7.79zm47.7-7.79c-1.414 0.533-5.032-1.138-4.866 0.973 1.415-0.53 5.036 1.14 4.866-0.97zm3.89 1.95c-0.256 2.513 6.343 6.398 6.814 1.947-1.97-1.06-5.08-3.56-6.81-1.95zm-79.822 6.82c5.551-0.291 11.987 0.306 14.602-2.923-3.857-5.64-12.269-1.4-14.602 2.92zm60.358-3.9h2.919c0.125-1.749-0.966-2.279-2.919-1.947v1.95zm11.68 5.84c0.812-2.757 5.981-1.158 7.789-2.923-1.114-6.505-7.416-0.188-10.708 0 0.116-2.803 4.15-1.688 3.895-4.866-3.912-0.344-7.126 0.018-7.79 2.919 3.129 0.77 4.258 3.54 6.816 4.87zm-40.886-1.94c2.84 1.433 2.84-4.352 0-2.923v2.92zm3.895-0.98c-0.272 2.222 0.234 3.662 1.947 3.896 0.415-1.857 2.781-1.762 1.946-4.867-1.696-0.07-3.028 0.22-3.893 0.97zm-18.497 1.95c4.94 2.65 3.624-3.4 0 0zm-15.576 3.89c2.279 1.568 6.494-1.433 7.788-3.895-3.56 0.34-7.687 0.11-7.788 3.9zm46.727 1.95c-8.983-1.94-9 3.34 0 0zm-11.681 21.42c2.343 0.399 2.116-1.778 4.867-0.975-0.119-4.747 0.713-10.447-1.947-12.656-4.013 1.15-5.18 9.34-2.92 13.63zm-34.072 4.86c2.947-1.164 6.855-4.625 9.735-7.789 1.75-1.921 7.837-8.963 4.867-8.762-4.525 5.86-11.086 9.69-14.602 16.55zm26.284-3.89c6.043 0.827 6.543-9 4.867-12.656-2.103 3.36-7.035 8.17-4.867 12.66zm15.575-1.95c2.293-0.021 2.867 1.677 5.842 0.975 0.532-3.141-1.938-10.796-6.814-11.684-0.752 4.65 1.522 6.27 0.972 10.71zm-32.124 2.93c4.985 1.208 10.486-9.242 10.708-12.656-4.362 3.42-7.872 7.7-10.708 12.66zm7.788-0.98c6.519 0.981 8.124-8.071 6.814-11.681-2.058 4.1-6.545 5.78-6.814 11.68zm38.939-0.97c-3.688-3.129-4.472-9.16-9.737-10.708 1.074 5.11 2.995 14.5 9.737 10.71zm8.761 3.89c-1.653-6.782-7.623-9.251-11.681-13.629 3.004 5.43 4.09 12.79 11.681 13.63zm9.741 2.92c-2.062-6.389-9.303-12.749-14.604-12.656 5.743 3.34 6.625 11.55 14.604 12.66zm-56.467-1.95c0.838 3.88-1.454 7.192 0 8.762 9.377-1.729 21.021-0.964 28.229 0 0.711-2.212-1.752-7.595 1.95-6.814 0.117 2.804-0.532 6.372 0.973 7.787 7.108 1.645 6.7-6.817 3.895-9.734-15.036-1.01-20.22-2.82-35.047-0.01zm-8.762 9.74c6.504 0.663 6.05-5.63 7.788-9.734-5.584 0.25-8.22 3.46-7.788 9.73zm47.702 0c3.443-0.524 4.265 1.574 5.839 2.922-0.748-3.671 1.188-4.654 0.973-7.789-2.338-0.905-2.576-3.912-6.812-2.92v7.79zm-54.518 1.95c3.767 0.154 6.07-6.203 3.895-8.762-2.468 1.74-4.598 3.83-3.895 8.76zm63.28 0h3.892c0.37-4.588-0.078-8.357-4.867-7.787 1.848 2.87-0.289 6.02 0.975 7.79zm-69.12 0.97c2.521 0.015 6.562-6.942 2.921-6.814-0.498 2.74-2.356 4.13-2.921 6.81zm79.825 2.92c1.933-2.885 0.553-9.189-3.895-8.762-0.09 4.3-0.19 8.62 3.89 8.76zm-57.435-2.92c-16.737 2.212-42.754 9.885-28.23 27.257 2.237 2.675 14.549 11.745 15.576 5.842-1.725-3.37-6.426-2.806-8.762-4.869-2.31-2.038-4.98-6.343-4.867-9.734 0.688-20.62 82.546-19.549 85.667-0.972 1.944 11.57-5.114 8.881-8.762 17.52 9.958-2.695 20.426-4.887 18.498-19.467-9.66-14.44-42.835-19.05-69.125-15.58zm64.255 4.87c-0.414-1.863-0.355-4.191-2.923-3.895-0.27 2.55-0.33 4.88 2.92 3.9zm4.86 2.92c-0.018-2.581 0.539-5.731-1.947-5.839 0.9 1.7 0.34 4.85 1.95 5.84zm-76.903 3.89c-2.027 14.795-0.725 34.079 0 46.727 5.09 1.947 13.156 0.795 16.549-1.947 1.646-6.835 0.974-16.516 0.974-25.31 0-9.107 1.515-18.422-1.946-24.337-5.893 0.92-12.144 1.49-15.577 4.87zm20.444 2.92c2.655 0.306 3.976-5.655 1.947-6.814-0.816 2.1-2.521 3.32-1.947 6.81zm5.839-0.97c6.077-1.674 13.407 1.111 17.522-3.896-6.747 2.225-9.361 0.408-17.522 0v3.9zm24.34 0.97c1.731-0.538 4.04-0.501 4.867-1.947-0.676-0.76-5.432-2.166-5.843 0 0.76 0.22 1.133 0.82 0.976 1.95zm-54.516 2.92v-4.87h-2.921c0.325 2.27 0.998 4.2 2.921 4.87zm34.071 0c1.257 2.591 5.463 0.716 5.842 1.944-0.87 1.726-3.95 1.243-2.92 4.869 3.089 13.134-1.784 34.231 2.92 45.753 4.206-1.634 9.771-1.91 13.628-3.893-0.058-16.207 2.949-31.983 0-45.755-0.512-2.393-2.104-6.427-4.866-7.789 0.339 7.65-13.871 0.86-14.604 4.88zm29.205 9.74c5.595-1.517 6.456-11.163 0-12.656-3.159 2.27-2.1 10.01 0 12.66zm-64.25 0c2.509-4.244-1.686-5.56-3.895-7.789-0.092-1.528 0.131-3.374-1.946-2.92-2.772 4.8 0.869 10.52 5.841 10.71zm26.285 1.94c0.124-4.005 1.5-10.875-0.974-12.656 0.624 3.93-1.266 10.36 0.974 12.66zm32.124-2.91c-0.008-1.43 0.37-7.968-0.975-4.87 0.012 1.42-0.367 7.96 0.975 4.87zm-24.337 5.83c-0.454-3.438 1.59-9.379-2.922-8.762-3.119 1.18-3.45 11.17 2.922 8.76zm-7.787 24.34c1.349-3.947-0.034-19.438-0.974-20.442 0.639 6.5-1.285 15.56 0.974 20.44zm2.92-20.44c-0.273 3.12 4.262 3.539 5.84 1.947 0.835-3.69-4.357-3.45-5.84-1.95zm30.18 22.39c0.128-1.28 0.146-7.044-0.976-3.895-0.128 1.28-0.148 7.05 0.976 3.9z"/>
</g>
<metadata><rdf:RDF><cc:Work><dc:format>image/svg+xml</dc:format><dc:type rdf:resource="http://purl.org/dc/dcmitype/StillImage"/><cc:license rdf:resource="http://creativecommons.org/licenses/publicdomain/"/><dc:publisher><cc:Agent rdf:about="http://openclipart.org/"><dc:title>Openclipart</dc:title></cc:Agent></dc:publisher><dc:title>frayed plug</dc:title><dc:date>2007-09-17T00:57:58</dc:date><dc:description>From Practice and science of standard barbering (c1951) Author: Thorpe, Sidney Coyne from archive.org</dc:description><dc:source>http://openclipart.org/detail/5532/frayed-plug-by-johnny_automatic</dc:source><dc:creator><cc:Agent><dc:title>johnny_automatic</dc:title></cc:Agent></dc:creator><dc:subject><rdf:Bag><rdf:li>clip art</rdf:li><rdf:li>clipart</rdf:li><rdf:li>cord</rdf:li><rdf:li>electrical</rdf:li><rdf:li>electricity</rdf:li><rdf:li>externalsource</rdf:li><rdf:li>image</rdf:li><rdf:li>media</rdf:li><rdf:li>plug</rdf:li><rdf:li>png</rdf:li><rdf:li>power</rdf:li><rdf:li>public domain</rdf:li><rdf:li>svg</rdf:li></rdf:Bag></dc:subject></cc:Work><cc:License rdf:about="http://creativecommons.org/licenses/publicdomain/"><cc:permits rdf:resource="http://creativecommons.org/ns#Reproduction"/><cc:permits rdf:resource="http://creativecommons.org/ns#Distribution"/><cc:permits rdf:resource="http://creativecommons.org/ns#DerivativeWorks"/></cc:License></rdf:RDF></metadata></svg>
