<?xml version="1.0" encoding="UTF-8"?>
<!DOCTYPE svg PUBLIC "-//W3C//DTD SVG 1.1//EN" "http://www.w3.org/Graphics/SVG/1.1/DTD/svg11.dtd">
<!-- Creator: Corel DESIGNER X5 -->
<svg xmlns="http://www.w3.org/2000/svg" xml:space="preserve" width="2.10164in" height="3.68065in" style="shape-rendering:geometricPrecision; text-rendering:geometricPrecision; image-rendering:optimizeQuality; fill-rule:evenodd; clip-rule:evenodd"
viewBox="0 0 705 1234"
 xmlns:xlink="http://www.w3.org/1999/xlink">
 <defs>
  <style type="text/css">
   <![CDATA[
    .str2 {stroke:#373435;stroke-width:2.32886;stroke-linecap:round;stroke-linejoin:round}
    .str0 {stroke:#373435;stroke-width:4.65773;stroke-linecap:round;stroke-linejoin:round}
    .str1 {stroke:#373435;stroke-width:6.98659;stroke-linecap:round;stroke-linejoin:round}
    .fil0 {fill:none;fill-rule:nonzero}
   ]]>
  </style>
 </defs>
 <g id="Layer_x0020_1">
  <metadata id="CorelCorpID_0Corel-Layer"/>
  <g id="_378851256">
   <path class="fil0 str0" d="M292 529c0,1 -1,3 -4,5 -6,4 -31,8 -38,2 -2,-2 -3,-4 -3,-5"/>
   <path class="fil0 str0" d="M290 534c3,1 4,4 -1,8 -6,4 -30,8 -37,2 -7,-6 -1,-9 -1,-10"/>
   <path class="fil0 str0" d="M290 541c3,1 4,4 -1,8 -6,4 -29,8 -35,3 -8,-5 -2,-9 -2,-9"/>
   <path class="fil0 str0" d="M291 548c3,1 4,4 -1,8 -6,4 -27,8 -34,3 -8,-4 -3,-8 -3,-9"/>
   <path class="fil0 str0" d="M292 555c3,1 4,4 -1,8 -5,4 -26,8 -33,4 -8,-4 -4,-8 -4,-9"/>
   <path class="fil0 str0" d="M293 562c3,1 4,4 -1,8 -5,4 -25,8 -32,4 -9,-3 -5,-7 -5,-8"/>
   <path class="fil0 str0" d="M294 569c3,1 4,4 -1,9 -5,4 -24,8 -31,5 -9,-3 -6,-7 -6,-8"/>
   <path class="fil0 str0" d="M295 576c3,1 4,5 -1,9 -5,4 -23,9 -30,5 -9,-2 -7,-7 -7,-8"/>
   <path class="fil0 str0" d="M297 582c3,1 4,5 -1,9 -5,4 -22,9 -29,6 -10,-2 -8,-6 -8,-7"/>
   <path class="fil0 str0" d="M299 589c3,1 4,5 -1,9 -5,4 -21,9 -28,7 -10,-1 -9,-6 -9,-7"/>
   <path class="fil0 str0" d="M300 596c3,1 4,5 -1,9 -5,4 -20,9 -27,7 -10,0 -10,-5 -10,-7"/>
   <path class="fil0 str0" d="M302 603c3,1 4,5 -1,9 -4,4 -19,9 -26,8 -11,0 -11,-5 -11,-6"/>
   <path class="fil0 str0" d="M304 609c3,1 4,5 -1,9 -4,4 -18,9 -25,8 -11,1 -12,-4 -12,-6"/>
   <path class="fil0 str0" d="M306 616c3,1 3,5 -1,9 -4,5 -17,9 -24,9 -11,1 -13,-4 -13,-6"/>
   <path class="fil0 str0" d="M308 623c3,1 3,5 -1,10 -4,5 -16,9 -23,9 -12,2 -14,-3 -14,-5"/>
   <path class="fil0 str0" d="M310 629c3,1 3,5 -1,10 -4,5 -15,10 -22,10 -12,2 -15,-3 -15,-5"/>
   <path class="fil0 str0" d="M313 636c3,1 3,5 0,10 -4,5 -14,10 -21,11 -12,3 -16,-2 -16,-5"/>
   <path class="fil0 str0" d="M315 642c3,1 3,5 0,10 -3,5 -13,10 -20,11 -13,4 -17,-2 -17,-4"/>
   <path class="fil0 str0" d="M318 649c3,1 3,5 0,10 -3,5 -11,10 -19,12 -13,4 -18,-1 -18,-4"/>
   <path class="fil0 str0" d="M320 655c3,1 3,5 0,10 -3,5 -10,10 -17,12 -13,5 -19,-1 -19,-4"/>
   <path class="fil0 str0" d="M323 662c3,1 3,5 0,10 -3,5 -9,10 -16,13 -14,5 -20,0 -20,-3"/>
   <path class="fil0 str0" d="M326 668c6,2 -1,18 -16,24 -14,6 -21,0 -21,-3"/>
   <path class="fil0 str0" d="M329 676c6,2 -1,18 -15,24 -14,6 -21,1 -21,-3"/>
   <path class="fil0 str0" d="M333 683c6,2 -1,18 -14,24 -14,6 -21,2 -22,-3"/>
   <path class="fil0 str0" d="M337 690c6,2 0,17 -14,23 -13,6 -22,3 -23,-2"/>
   <path class="fil0 str0" d="M341 698c6,2 0,17 -13,23 -13,6 -22,4 -23,-2"/>
   <path class="fil0 str0" d="M345 705c6,2 0,17 -13,23 -13,6 -22,4 -24,-2"/>
   <path class="fil0 str0" d="M349 712c6,2 1,17 -12,23 -13,6 -23,5 -24,-2"/>
   <path class="fil0 str0" d="M353 719c6,2 1,16 -11,23 -12,6 -23,6 -25,-2"/>
   <path class="fil0 str0" d="M357 726c6,2 1,16 -11,22 -12,6 -23,7 -26,-2"/>
   <path class="fil0 str0" d="M361 733c6,2 2,16 -10,22 -12,6 -24,7 -26,-2"/>
   <path class="fil0 str0" d="M366 740c6,2 2,16 -10,22 -12,6 -24,8 -27,-1"/>
   <path class="fil0 str0" d="M370 747c6,2 2,16 -9,22 -11,6 -24,9 -27,-1"/>
   <path class="fil0 str0" d="M374 754c5,2 3,15 -9,22 -11,6 -25,10 -28,-1"/>
   <path class="fil0 str0" d="M379 761c5,2 3,15 -8,21 -11,6 -25,11 -29,-1"/>
   <path class="fil0 str0" d="M384 768c5,2 3,15 -7,21 -11,6 -25,11 -29,-1"/>
   <path class="fil0 str0" d="M388 775c5,2 4,15 -7,21 -10,6 -25,12 -30,-1"/>
   <path class="fil0 str0" d="M392 781c5,2 4,14 -7,21 -11,7 -25,12 -29,0"/>
   <path class="fil0 str0" d="M396 787c5,1 5,14 -6,21 -11,8 -25,11 -29,0"/>
   <path class="fil0 str0" d="M400 793c5,1 5,13 -6,22 -11,8 -25,10 -28,0"/>
   <path class="fil0 str0" d="M404 800c5,1 6,13 -6,22 -12,9 -25,10 -28,1"/>
   <path class="fil0 str0" d="M408 806c5,1 6,13 -6,22 -12,9 -24,9 -27,1"/>
   <path class="fil0 str0" d="M413 812c5,0 7,12 -6,22 -13,10 -24,9 -27,2"/>
   <path class="fil0 str0" d="M417 818c5,0 7,12 -6,22 -13,11 -24,8 -26,2"/>
   <path class="fil0 str0" d="M421 824c5,0 8,11 -6,23 -13,11 -24,8 -26,3"/>
   <path class="fil0 str0" d="M426 830c5,0 8,11 -6,23 -14,12 -24,7 -25,3"/>
   <path class="fil0 str0" d="M430 836c5,0 9,11 -5,23 -14,12 -23,6 -24,3"/>
   <path class="fil0 str0" d="M435 841c5,-1 9,10 -5,23 -14,13 -23,6 -24,4"/>
   <path class="fil0 str0" d="M439 847c5,-1 10,10 -5,23 -15,14 -23,5 -23,4"/>
   <path class="fil0 str0" d="M444 853c5,-1 10,10 -5,24 -15,14 -23,5 -23,5"/>
   <path class="fil0 str0" d="M450 861c5,-1 10,10 -5,24 -15,14 -23,5 -23,5"/>
   <path class="fil0 str0" d="M456 868c5,-1 10,10 -5,24 -15,14 -23,5 -23,5"/>
   <path class="fil0 str0" d="M462 875c5,-1 10,10 -5,24 -15,14 -23,5 -23,5"/>
   <path class="fil0 str0" d="M468 882c5,-1 10,10 -5,24 -15,14 -23,5 -23,5"/>
   <path class="fil0 str0" d="M450 917c-1,3 2,6 8,3 5,-2 19,-12 18,-23 0,-2 1,-3 0,-5 0,-3 -1,-5 -2,-6"/>
   <path class="fil0 str0" d="M458 922c-1,3 2,6 8,4 6,-2 20,-18 18,-26 0,-9 -6,-7 -7,-7"/>
   <path class="fil0 str0" d="M464 927c-1,3 2,6 8,4 6,-2 19,-17 19,-25 0,-9 -6,-8 -6,-8"/>
   <path class="fil0 str0" d="M470 932c-1,3 2,6 8,4 6,-2 19,-16 19,-24 1,-9 -5,-8 -5,-9"/>
   <path class="fil0 str0" d="M475 937c-1,3 2,6 8,4 6,-2 19,-15 19,-23 2,-9 -4,-9 -5,-9"/>
   <path class="fil0 str0" d="M481 942c-1,3 2,6 8,4 6,-2 18,-14 19,-22 2,-9 -3,-9 -4,-10"/>
   <path class="fil0 str0" d="M486 947c-1,3 2,6 8,4 6,-2 18,-13 19,-21 3,-9 -2,-10 -3,-11"/>
   <path class="fil0 str0" d="M492 952c-1,3 3,6 9,4 6,-1 18,-12 19,-19 4,-9 -1,-10 -2,-11"/>
   <path class="fil0 str0" d="M497 957c-1,3 3,6 9,4 6,-1 17,-11 19,-18 4,-9 0,-11 -2,-12"/>
   <path class="fil0 str0" d="M502 963c-1,3 3,6 9,5 6,-1 17,-10 19,-17 5,-9 1,-11 -1,-12"/>
   <path class="fil0 str0" d="M508 968c-1,3 3,6 9,5 6,-1 16,-9 19,-16 6,-9 2,-12 0,-13"/>
   <path class="fil0 str0" d="M513 974c-1,3 3,6 9,5 6,-1 16,-9 19,-15 6,-9 3,-12 1,-14"/>
   <path class="fil0 str0" d="M518 979c0,3 3,6 9,5 6,-1 16,-8 19,-13 7,-9 3,-13 1,-14"/>
   <path class="fil0 str0" d="M523 985c0,3 3,6 9,5 6,0 15,-7 19,-12 8,-9 4,-14 2,-15"/>
   <path class="fil0 str0" d="M527 990c0,3 3,6 9,5 6,0 15,-6 19,-11 8,-9 5,-14 3,-16"/>
   <path class="fil0 str0" d="M532 996c0,3 3,6 9,5 6,0 15,-5 19,-10 9,-8 6,-15 4,-16"/>
   <path class="fil0 str0" d="M537 1002c0,3 3,5 9,5 6,0 14,-4 19,-9 10,-8 7,-15 4,-17"/>
   <path class="fil0 str0" d="M542 1008c0,3 4,5 9,6 6,0 14,-3 19,-7 10,-8 8,-16 5,-17"/>
   <path class="fil0 str0" d="M546 1014c0,3 4,5 9,6 6,0 14,-2 19,-6 11,-8 9,-16 6,-18"/>
   <path class="fil0 str0" d="M551 1019c-1,6 17,9 29,1 12,-8 10,-17 7,-19"/>
   <path class="fil0 str0" d="M556 1027c-1,6 17,9 28,1 12,-8 11,-17 7,-19"/>
   <path class="fil0 str0" d="M561 1034c-1,6 16,9 28,2 12,-8 11,-16 8,-20"/>
   <path class="fil0 str0" d="M566 1041c-1,6 16,10 27,2 11,-8 12,-16 8,-20"/>
   <path class="fil0 str0" d="M570 1048c-1,6 15,10 27,2 11,-7 13,-16 8,-20"/>
   <path class="fil0 str0" d="M575 1056c-1,6 15,10 26,3 11,-7 14,-16 9,-21"/>
   <path class="fil0 str0" d="M580 1063c-1,6 15,10 26,3 11,-7 15,-16 9,-21"/>
   <path class="fil0 str0" d="M584 1071c-1,6 14,10 26,3 11,-7 16,-15 10,-22"/>
   <path class="fil0 str0" d="M589 1078c-1,6 14,10 25,4 11,-6 17,-15 10,-22"/>
   <path class="fil0 str0" d="M593 1086c-1,6 14,10 25,4 11,-6 17,-15 10,-22"/>
   <path class="fil0 str0" d="M598 1093c-1,6 13,11 24,5 11,-6 18,-15 11,-23"/>
   <path class="fil0 str0" d="M602 1101c-1,6 13,11 24,5 11,-6 19,-15 11,-23"/>
   <path class="fil0 str0" d="M606 1108c-1,6 13,11 23,5 11,-6 20,-15 12,-24"/>
   <path class="fil0 str0" d="M610 1116c-1,6 12,11 23,6 11,-5 21,-14 12,-24"/>
   <path class="fil0 str0" d="M614 1124c-1,6 12,11 22,6 10,-5 22,-14 12,-25"/>
   <path class="fil0 str0" d="M618 1131c-1,5 12,11 22,6 10,-5 23,-14 13,-25"/>
   <path class="fil0 str0" d="M622 1138c-1,5 11,11 22,7 11,-5 22,-14 13,-24"/>
   <path class="fil0 str0" d="M626 1145c-1,5 10,12 22,7 12,-5 21,-14 13,-24"/>
   <path class="fil0 str0" d="M630 1152c-1,5 10,12 22,7 13,-5 21,-14 13,-23"/>
   <path class="fil0 str0" d="M634 1159c-2,5 9,12 22,7 13,-5 20,-15 13,-22"/>
   <path class="fil0 str0" d="M637 1166c-2,5 9,12 23,8 14,-5 20,-15 13,-22"/>
   <path class="fil0 str0" d="M641 1172c-2,5 8,12 23,8 15,-5 19,-15 14,-21"/>
   <path class="fil0 str0" d="M644 1179c-2,5 7,13 23,8 15,-5 18,-15 14,-20"/>
   <path class="fil0 str0" d="M648 1186c-2,4 7,13 23,8 16,-5 18,-15 14,-20"/>
   <path class="fil0 str0" d="M651 1193c-3,4 6,13 23,8 17,-5 17,-16 14,-19"/>
   <path class="fil0 str0" d="M654 1200c-3,4 6,13 23,9 18,-5 16,-16 14,-18"/>
   <path class="fil0 str0" d="M658 1207c-3,4 5,13 23,9 18,-5 16,-16 14,-18"/>
   <path class="fil0 str0" d="M661 1214c-3,4 5,14 23,9 19,-5 15,-16 14,-17"/>
   <path class="fil0 str0" d="M664 1221c-3,4 4,14 24,9 20,-5 15,-16 15,-16"/>
   <path class="fil0 str1" d="M479 244c-47,45 -138,68 -240,56 -140,-17 -246,-97 -236,-177 10,-81 132,-132 272,-115 102,13 186,58 220,113"/>
   <path class="fil0 str1" d="M241 290c131,16 244,-32 253,-107 9,-75 -89,-150 -220,-166 -131,-16 -244,32 -253,107 -9,75 89,150 220,166z"/>
   <path class="fil0 str1" d="M495 120c35,18 120,66 120,66 0,0 17,7 7,35 -10,28 -11,27 -38,28 -27,1 -112,1 -112,1"/>
   <path class="fil0 str2" d="M614 240c-5,2 -11,2 -23,3 -27,1 -112,1 -112,1"/>
   <path class="fil0 str2" d="M583 216c11,1 20,-2 20,-8 1,-5 -7,-11 -18,-12 -11,-1 -20,2 -20,8 -1,5 7,11 18,12z"/>
   <path class="fil0 str0" d="M602 210c-2,-4 -9,-7 -17,-8 -9,-1 -17,1 -19,5"/>
   <path class="fil0 str0" d="M565 204c-1,5 8,11 18,12 9,1 18,-2 20,-6"/>
   <polyline class="fil0 str1" points="21,188 216,414 247,531 "/>
   <polyline class="fil0 str1" points="473,250 313,417 292,531 "/>
   <path class="fil0 str1" d="M292 531c-3,6 -39,14 -44,0"/>
   <polyline class="fil0 str2" points="256,539 227,416 97,255 "/>
   <polyline class="fil0 str2" points="262,539 248,423 163,283 "/>
   <polyline class="fil0 str2" points="269,535 267,427 256,301 "/>
   <line class="fil0 str2" x1="205" y1="14" x2="241" y2= "290" />
   <path class="fil0 str2" d="M62 63c-2,-3 84,203 84,203"/>
   <line class="fil0 str2" x1="495" y1="165" x2="439" y2= "257" />
   <line class="fil0 str2" x1="481" y1="125" x2="413" y2= "270" />
   <line class="fil0 str2" x1="442" y1="81" x2="364" y2= "286" />
  </g>
 </g>
</svg>
