<?xml version="1.0"?>
<svg xmlns:rdf="http://www.w3.org/1999/02/22-rdf-syntax-ns#" xmlns="http://www.w3.org/2000/svg" xmlns:cc="http://creativecommons.org/ns#" xmlns:dc="http://purl.org/dc/elements/1.1/" xmlns:svg="http://www.w3.org/2000/svg" id="svg4477" viewBox="0 0 301.55 310.33" version="1.1">
  <defs id="defs4479">
    <filter id="filter5102" color-interpolation-filters="sRGB">
      <feGaussianBlur id="feGaussianBlur5104" stdDeviation="17.075079"/>
    </filter>
  </defs>
  <g id="layer1" transform="translate(.49848 -17.892)">
    <g id="g3035">
      <path id="rect5058" opacity=".83333" filter="url(#filter5102)" d="m358.83 53.99-21.094 0.09375 2.0625 65.281-68.625-45.875 1.2188 36.344 220.06 146.03 15.781-23.844-146.91-98.219-2.5-79.812zm-94.125 19.062-236.16 159.41 15.781 23.812 220.94-146-0.5625-37.219zm-158.34 152.59-26.562 20.25v261.19h25.656l0.90625-281.44zm324.06 0 0.875 281.44h25.688v-261.19l-26.562-20.25zm-365.22 286.31v13.281h406.38v-13.281h-406.38zm126.16 24.781v13.281h154.06v-13.281h-154.06z" transform="matrix(.53690 0 0 .53690 6.1744 10.907)"/>
      <path id="rect5004" d="m198.82 39.882-11.312 0.0625 1.0938 35.062-36.844-24.656 0.65625 19.531 118.16 78.375 8.4688-12.781-78.875-52.75-1.3438-42.844zm-50.531 10.25-126.78 85.594 8.4688 12.781 118.63-78.406-0.3125-19.969zm-85.031 81.906-14.25 10.906v140.22h13.781l0.46875-151.12zm174 0 0.46875 151.12h13.781v-140.22l-14.25-10.906zm-196.09 153.75v7.125h218.19v-7.125h-218.19zm67.75 13.312v7.125h82.719v-7.125h-82.719z"/>
    </g>
  </g>
  <metadata>
    <rdf:RDF>
      <cc:Work>
        <dc:format>image/svg+xml</dc:format>
        <dc:type rdf:resource="http://purl.org/dc/dcmitype/StillImage"/>
        <cc:license rdf:resource="http://creativecommons.org/licenses/publicdomain/"/>
        <dc:publisher>
          <cc:Agent rdf:about="http://openclipart.org/">
            <dc:title>Openclipart</dc:title>
          </cc:Agent>
        </dc:publisher>
        <dc:title>Home</dc:title>
        <dc:date>2011-05-23T14:32:40</dc:date>
        <dc:description>Black and white Home</dc:description>
        <dc:source>http://openclipart.org/detail/140131/home-by-gsagri04</dc:source>
        <dc:creator>
          <cc:Agent>
            <dc:title>gsagri04</dc:title>
          </cc:Agent>
        </dc:creator>
        <dc:subject>
          <rdf:Bag>
            <rdf:li>Home</rdf:li>
            <rdf:li>black</rdf:li>
            <rdf:li>clip art</rdf:li>
            <rdf:li>clipart</rdf:li>
            <rdf:li>house</rdf:li>
            <rdf:li>icon</rdf:li>
            <rdf:li>png</rdf:li>
            <rdf:li>svg</rdf:li>
            <rdf:li>white</rdf:li>
          </rdf:Bag>
        </dc:subject>
      </cc:Work>
      <cc:License rdf:about="http://creativecommons.org/licenses/publicdomain/">
        <cc:permits rdf:resource="http://creativecommons.org/ns#Reproduction"/>
        <cc:permits rdf:resource="http://creativecommons.org/ns#Distribution"/>
        <cc:permits rdf:resource="http://creativecommons.org/ns#DerivativeWorks"/>
      </cc:License>
    </rdf:RDF>
  </metadata>
</svg>
