<?xml version="1.0"?>
<svg xmlns:rdf="http://www.w3.org/1999/02/22-rdf-syntax-ns#" xmlns="http://www.w3.org/2000/svg" xmlns:cc="http://web.resource.org/cc/" xmlns:xlink="http://www.w3.org/1999/xlink" xmlns:dc="http://purl.org/dc/elements/1.1/" xmlns:svg="http://www.w3.org/2000/svg" xml:space="preserve" overflow="visible" enable-background="new 0 0 162.456 262.757" viewBox="0 0 162.456 262.757">
		<g id="Layer_1">
			<rect y="256.41" width="19.038" height="6.346" x="72.344" fill="#6E6E6E"/> 
				<radialGradient id="XMLID_10_" gradientUnits="userSpaceOnUse" cy="255.78" cx="81.863" r="11.44">
				<stop stop-color="#CFCFCF" offset="0"/>
				<stop stop-color="#A8A8A8" offset="1"/>
			</radialGradient>
			<rect y="252.6" width="31.729" height="6.346" x="65.998" fill="url(#XMLID_10_)"/> 
				<radialGradient id="XMLID_11_" gradientUnits="userSpaceOnUse" cy="102.84" cx="81.228" r="92.666">
				<stop stop-color="#fff" offset="0"/>
				<stop stop-color="#CDCDCD" offset="1"/>
			</radialGradient>
			<path d="m162.46 71.595c0-39.538-36.37-71.595-81.231-71.595s-81.229 32.057-81.229 71.595c0 15.627 5.741 30.04 15.376 41.81 1.14 1.602 33.272 47.059 36 66.235 2.774 19.529 2.774 24.734 2.774 24.734l15.3 0.516-0.027 0.788 11.805-0.396 11.804 0.396-0.024-0.788 15.3-0.516s0-5.205 2.771-24.734c2.731-19.177 34.857-64.634 35.998-66.235 9.64-11.76 15.38-26.178 15.38-41.805z" fill="url(#XMLID_11_)"/>
			<g opacity=".39" stroke="#6D6868" stroke-width=".75" fill="none">
				<line x2="74.882" y1="93.955" x1="79.959" y2="208.18"/>
				<line x2="86.305" y1="93.955" x1="83.767" y2="208.18"/>
			</g>
			<radialGradient id="XMLID_12_" gradientUnits="userSpaceOnUse" cy="205.68" cx="93.032" r="0">
				<stop stop-color="#fff" offset=".3315"/>
				<stop stop-color="#5F5F5F" offset="1"/>
			</radialGradient>
			<path d="m93.032 205.68" fill="url(#XMLID_12_)"/>
			<g fill="#BCBCBC">
				<path opacity=".26" d="m81.229 0l-0.437 3.277 2.102 15.795c-0.733 0.134-1.383 0.297-2.102 0.436 94.748 18.448 42.319 89.676 42.319 89.676l-30.079 96.493 15.275-1.304c-7.194-21.576 30.034-81.228 30.034-81.228 72.35-109.14-57.111-123.14-57.111-123.14z"/>
				<path opacity=".26" d="m80.792 3.277l-0.437-3.277s-129.46 13.996-57.113 123.15 37.228 59.651 30.036 81.228l15.272 1.304-30.078-96.493s-52.429-71.228 42.319-89.676c-0.719-0.139-1.368-0.302-2.103-0.436l2.104-15.801z"/>
				<path opacity=".26" d="m80.792 3.277l-2.103 15.795c0.734 0.134 1.384 0.297 2.103 0.436 0.719-0.139 1.368-0.302 2.102-0.436l-2.102-15.795z"/>
				<path opacity=".26" d="m80.792 3.277l-2.103 15.795c0.734 0.134 1.384 0.297 2.103 0.436 0.719-0.139 1.368-0.302 2.102-0.436l-2.102-15.795z"/>
			</g>
			<g opacity=".54">
				<path d="m44.699 12.747s-57.345 43.39-32.667 87.051c20.216 40.312-19.683-38.855 32.667-87.051z" fill="#BCBCBC"/>
			</g>
						<radialGradient id="XMLID_13_" gradientUnits="userSpaceOnUse" cy="210.36" cx="81.228" r="20.899">
						<stop stop-color="#fff" offset="0"/>
						<stop stop-color="#818181" offset="1"/>
					</radialGradient>
					<path d="m109.78 210.36c0 4.204-3.411 7.615-7.615 7.615h-41.874c-4.206 0-7.615-3.411-7.615-7.615s3.409-7.615 7.615-7.615h41.884c4.2 0 7.61 3.41 7.61 7.62z" fill="url(#XMLID_13_)"/>
						<line stroke-width=".75" x1="109.78" x2="52.671" stroke="#6D6868" y1="204.01" y2="204.01" fill="none"/>
								<radialGradient id="XMLID_14_" gradientUnits="userSpaceOnUse" cy="219.56" cx="80.594" r="21.209">
								<stop stop-color="#fff" offset=".3315"/>
								<stop stop-color="#A1A1A1" offset="1"/>
							</radialGradient>
							<rect y="216.39" width="59.652" height="6.346" x="50.768" fill="url(#XMLID_14_)"/> 
								<line stroke-width=".75" x1="54.575" x2="107.88" stroke="#AFAFAF" y1="224.64" y2="224.64" fill="none"/>
								<radialGradient id="XMLID_15_" gradientUnits="userSpaceOnUse" cy="228.44" cx="80.594" r="21.209">
								<stop stop-color="#fff" offset=".3315"/>
								<stop stop-color="#A1A1A1" offset="1"/>
							</radialGradient>
							<rect y="225.27" width="59.652" height="6.346" x="50.768" fill="url(#XMLID_15_)"/> 
								<line stroke-width=".75" x1="54.575" x2="107.88" stroke="#AFAFAF" y1="233.52" y2="233.52" fill="none"/>
								<radialGradient id="XMLID_16_" gradientUnits="userSpaceOnUse" cy="237.33" cx="80.594" r="21.209">
								<stop stop-color="#fff" offset=".3315"/>
								<stop stop-color="#A1A1A1" offset="1"/>
							</radialGradient>
							<rect y="234.16" width="59.652" height="6.346" x="50.768" fill="url(#XMLID_16_)"/> 
								<line stroke-width=".75" x1="54.575" x2="107.88" stroke="#AFAFAF" y1="242.4" y2="242.4" fill="none"/>
								<radialGradient id="XMLID_17_" gradientUnits="userSpaceOnUse" cy="246.21" cx="80.594" r="21.209">
								<stop stop-color="#fff" offset=".3315"/>
								<stop stop-color="#A1A1A1" offset="1"/>
							</radialGradient>
							<rect y="243.04" width="59.652" height="6.346" x="50.768" fill="url(#XMLID_17_)"/> 
								<line stroke-width=".75" x1="54.575" x2="107.88" stroke="#AFAFAF" y1="251.29" y2="251.29" fill="none"/>
			<path stroke="#AFAFAF" stroke-width=".5" d="m70.993 101.3c4.583 7.045 12.015 7.045 16.601 0 3.669-5.637 3.669-14.773 0-20.411-2.935-4.506-7.694-4.506-10.624 0-2.348 3.609-2.348 9.455 0 13.06 1.879 2.885 4.923 2.89 6.797 0.005" fill="none"/>
				<radialGradient id="XMLID_18_" gradientUnits="userSpaceOnUse" cy="84.56" cx="135.65" gradientTransform="matrix(.9984 .0565 -.0565 .9984 14.908 -3.2114)" r="24.964">
				<stop stop-color="#CFCFCF" offset="0"/>
				<stop stop-color="#A8A8A8" offset="1"/>
			</radialGradient>
			<path opacity=".54" d="m152.96 54.972s10.313 42.533-17.809 67.639 18.72-61.228 17.81-67.638z" fill="url(#XMLID_18_)"/>
		</g>
	<metadata><rdf:RDF><cc:Work><dc:format>image/svg+xml</dc:format><dc:type rdf:resource="http://purl.org/dc/dcmitype/StillImage"/><cc:license rdf:resource="http://creativecommons.org/licenses/publicdomain/"/><dc:publisher><cc:Agent rdf:about="http://openclipart.org/"><dc:title>Openclipart</dc:title></cc:Agent></dc:publisher><dc:title>Lightbulb Grayscale</dc:title><dc:date>2007-04-05T10:25:13</dc:date><dc:description>Created with Adobe Illustrator</dc:description><dc:source>http://openclipart.org/detail/3786/lightbulb-grayscale-by-iedesign</dc:source><dc:creator><cc:Agent><dc:title>iedesign</dc:title></cc:Agent></dc:creator><dc:subject><rdf:Bag><rdf:li>bulb</rdf:li><rdf:li>clip art</rdf:li><rdf:li>clipart</rdf:li><rdf:li>grayscale</rdf:li><rdf:li>image</rdf:li><rdf:li>lamp</rdf:li><rdf:li>lighting</rdf:li><rdf:li>media</rdf:li><rdf:li>public domain</rdf:li><rdf:li>svg</rdf:li></rdf:Bag></dc:subject></cc:Work><cc:License rdf:about="http://creativecommons.org/licenses/publicdomain/"><cc:permits rdf:resource="http://creativecommons.org/ns#Reproduction"/><cc:permits rdf:resource="http://creativecommons.org/ns#Distribution"/><cc:permits rdf:resource="http://creativecommons.org/ns#DerivativeWorks"/></cc:License></rdf:RDF></metadata></svg>
