<?xml version="1.0"?>
<svg xmlns:rdf="http://www.w3.org/1999/02/22-rdf-syntax-ns#" xmlns="http://www.w3.org/2000/svg" xmlns:cc="http://creativecommons.org/ns#" xmlns:dc="http://purl.org/dc/elements/1.1/" xmlns:svg="http://www.w3.org/2000/svg" id="svg2985" viewBox="0 0 1356 606" version="1.1">
  <path id="path3005" fill="#bfbfbf" d="m669.76 402.05c-3.0678-2.0793-298.31-100.54-301.47-100.54-1.5297 0-3.2261-0.5625-3.7698-1.25-0.54367-0.6875-1.2451-6.2-1.5588-12.25-0.31368-6.05-1.3088-13.847-2.2115-17.327-0.90262-3.4798-1.3738-7.0236-1.047-7.8752 0.65749-1.7134-1.8982-22.925-3.3881-28.12-0.51939-1.811-0.70728-3.9105-0.41754-4.6656 0.57136-1.489 5.5068-3.5126 8.5668-3.5126 2.7801 0 325.87-103.89 328.66-105.68 1.5576-0.99931 3.4319-1.294 5.5-0.86462 9.7522 2.0245 239.03 35.45 243.45 35.492 7.0966 0.0676 9.1842 1.2918 9.1842 5.3858 0 1.7956-0.455 3.7199-1.0112 4.276-0.5562 0.55618-1.2926 6.8337-1.6365 13.95-0.3438 7.1163-1.0228 13.446-1.5087 14.065-0.486 0.61961-1.0641 5.1196-1.2847 10-0.2207 4.8804-0.4367 9.6504-0.48 10.6-0.044 0.96137-1.741 2.5332-3.8289 3.5463-5.3505 2.5963-258.19 179.88-261.49 183.35-3.0026 3.1576-6.9015 3.6958-10.264 1.4167zm3.276-20.659c0.2413-12.768 0.054-14.862-1.5-16.732-2.3157-2.7869-302.81-96.016-304.39-94.437-1.0537 1.0537 0.75674 21.483 2.144 24.193 0.7536 1.4724 299.34 102.09 301.97 101.76 1.2417-0.1576 1.5475-2.7036 1.776-14.785zm135.72-78.849c69.3-48.551 126.99-89.232 128.2-90.403 1.6783-1.6214 2.4364-4.0306 3.1822-10.113 0.5385-4.3914 0.8026-8.1609 0.587-8.3765-0.2156-0.21564-58.858 37.577-130.32 83.984-82.484 53.567-130.52 85.346-131.54 87.031-1.2779 2.1008-1.6147 5.5037-1.6147 16.318v13.664l2.75-1.9153c1.5125-1.0534 59.45-41.639 128.75-90.19zm-135.32 52.969c0.3717-2.475 0.7092-10.035 0.75-16.8 0.086-14.255-6.7322-13.589-11.92-15.039-1.7866-0.49923-65.338-23.926-148.24-47.2-82.907-23.274-146.2-37.139-146.59-36.75-0.38869 0.38869-4.769 2.4718-3.7948 10.568 1.342 11.153 2.1649 14.963 3.3954 15.721 2.7839 1.7141 189.87 58.463 303.72 94.185 1.4957 0.46926 2.1484-1.173 2.6759-4.6849zm137.82-83.455c70.125-45.535 128.15-83.401 128.94-84.146 1.2184-1.145 4.6492-22.139 3.7627-23.026-0.1432-0.14325-59.648 34.746-132.23 77.532-122.99 72.499-130.29 78.907-131.4 82.077-0.7203 2.0526-2.983 8.8028-3.017 18.367l-0.057 15.849 3.25-1.9312c1.7875-1.0622 60.625-39.187 130.75-84.721z"/>
  <path id="path3799" opacity=".15356" d="m380.5 233 291 85 267-157l-240.5-38.5-331 107.5z" stroke="#000" stroke-width=".4" fill="#b9b9b9"/>
  <metadata>
    <rdf:RDF>
      <cc:Work>
        <dc:format>image/svg+xml</dc:format>
        <dc:type rdf:resource="http://purl.org/dc/dcmitype/StillImage"/>
        <cc:license rdf:resource="http://creativecommons.org/licenses/publicdomain/"/>
        <dc:publisher>
          <cc:Agent rdf:about="http://openclipart.org/">
            <dc:title>Openclipart</dc:title>
          </cc:Agent>
        </dc:publisher>
        <dc:title>Madrass</dc:title>
        <dc:date>2012-08-06T22:25:03</dc:date>
        <dc:description>Simple maddrass</dc:description>
        <dc:source>http://openclipart.org/detail/171526/madrass-by-madrass-171526</dc:source>
        <dc:creator>
          <cc:Agent>
            <dc:title>madrass</dc:title>
          </cc:Agent>
        </dc:creator>
        <dc:subject>
          <rdf:Bag>
            <rdf:li>clip art</rdf:li>
            <rdf:li>clipart</rdf:li>
            <rdf:li>madrass</rdf:li>
            <rdf:li>mattress</rdf:li>
            <rdf:li>tempur</rdf:li>
            <rdf:li>tryckavlastande</rdf:li>
          </rdf:Bag>
        </dc:subject>
      </cc:Work>
      <cc:License rdf:about="http://creativecommons.org/licenses/publicdomain/">
        <cc:permits rdf:resource="http://creativecommons.org/ns#Reproduction"/>
        <cc:permits rdf:resource="http://creativecommons.org/ns#Distribution"/>
        <cc:permits rdf:resource="http://creativecommons.org/ns#DerivativeWorks"/>
      </cc:License>
    </rdf:RDF>
  </metadata>
</svg>
